<svg xmlns="http://www.w3.org/2000/svg" xml:space="preserve" id="Layer_1" x="0" y="0" viewBox="0 0 1165.51 600"><style>.st0{fill:#fff}.st44{fill:#666}.st142{fill:#f47b67}.st148{fill:#9b9b9b}.st240{font-family:&quot;Lato-Light&quot;}.st241{font-size:17.0626px}.st242{fill:none;stroke-width:.3562;stroke-miterlimit:10}.st244{font-size:23.0892px}.st245,.st246{stroke-width:.474;stroke-miterlimit:10}.st246{stroke-width:.4641}.st144{fill:#b3b3b3}.st242{stroke:#5a5a55}.st245,.st246{fill:none;stroke:#6f6f6f}.stDark{fill:#161616}</style><path d="M268.68 336.45h791v73h-791z" class="st142"/><path d="M268.68 435.45h791v99h-791z" class="stDark"/><path d="M268.68 435.45h791v99h-791z" style="fill:none;stroke:#cecece;stroke-width:.413;stroke-miterlimit:10"/><text class="st144 st240 st241" transform="translate(127.42 256.292)">Containers</text><text class="st144 st240 st241" transform="translate(127.42 256.292)">Containers</text><text class="st144 st240 st241" transform="translate(106.698 478.094)">Infrastructure</text><text class="st144 st240 st241" transform="translate(105.232 378.56)">Orchestration</text><path d="M434.68 252.45h-167V107.68c0-1.78 1.45-3.23 3.23-3.23h160.55c1.78 0 3.23 1.44 3.23 3.23v144.77z" class="st44"/><path d="M267.68 252.45h167v58h-167z" class="stDark"/><path d="M267.68 252.45h167v58h-167z" class="st242"/><path d="M642.68 252.45h-167v-87.77c0-1.78 1.44-3.23 3.23-3.23h160.55c1.78 0 3.23 1.44 3.23 3.23v87.77z" class="st44"/><path d="M475.68 252.45h167v58h-167z" class="stDark"/><path d="M475.68 252.45h167v58h-167z" class="st242"/><path d="M849.68 252.45h-167v-87.77c0-1.78 1.44-3.23 3.23-3.23h160.55c1.78 0 3.23 1.44 3.23 3.23v87.77z" class="st44"/><path d="M682.68 252.45h167v58h-167z" class="stDark"/><path d="M682.68 252.45h167v58h-167z" class="st242"/><path d="M1057.68 252.45h-167v-87.77c0-1.78 1.44-3.23 3.23-3.23h160.55c1.78 0 3.23 1.44 3.23 3.23v87.77z" class="st44"/><path d="M890.68 252.45h167v58h-167z" class="stDark"/><path d="M890.68 252.45h167v58h-167z" class="st242"/><path d="M683.92 65.11h310.24v53.24H683.92z" style="fill:none"/><text transform="translate(705.65 81.93)"><tspan x="0" y="0" class="st142 st240 st244">Provision object storage as </tspan><tspan x="79.33" y="35.07" class="st142 st240 st244">Containers</tspan></text><text class="st0 st240 st241" transform="translate(326.25 226.378)">OBSTOR</text><text class="st0 st240 st241" transform="translate(531.67 212.158)">MySQL</text><text class="st0 st240 st241" transform="translate(743.018 212.158)">REDIS</text><text class="st0 st240 st241" transform="translate(939.02 212.158)">NODE JS</text><text class="st144 st240 st241" transform="translate(313.305 287.317)">DOCKER</text><text class="st144 st240 st241" transform="translate(520.695 287.317)">DOCKER</text><text class="st144 st240 st241" transform="translate(728.085 287.317)">DOCKER</text><text class="st144 st240 st241" transform="translate(935.475 287.317)">DOCKER</text><text class="st0 st240 st241" transform="translate(365.896 378.56)">DOCKER SWARM</text><text class="st0 st240 st241" transform="translate(617.795 378.56)">MESOSPHERE</text><text class="st0 st240 st241" transform="translate(840.562 378.56)">KUBERNETES</text><path d="M784.13 483.41c0-3.62 2.93-6.55 6.55-6.55v-17.01c0-1.87-1.52-3.39-3.39-3.39h-99.21c-1.87 0-3.39 1.52-3.39 3.39v17.01c3.62 0 6.55 2.93 6.55 6.55s-2.93 6.55-6.55 6.55v20.1c0 1.87 1.52 3.39 3.39 3.39h99.21c1.87 0 3.39-1.52 3.39-3.39v-20.1a6.56 6.56 0 0 1-6.55-6.55z" class="st245"/><path d="M784.13 483.41c0-3.62 2.93-6.55 6.55-6.55v-17.01c0-1.87-1.52-3.39-3.39-3.39h-99.21c-1.87 0-3.39 1.52-3.39 3.39v17.01c3.62 0 6.55 2.93 6.55 6.55s-2.93 6.55-6.55 6.55v20.1c0 1.87 1.52 3.39 3.39 3.39h99.21c1.87 0 3.39-1.52 3.39-3.39v-20.1a6.56 6.56 0 0 1-6.55-6.55z" class="st245"/><path d="M697.68 470.45h10v23h-10z" class="st246"/><path d="M694.68 473.45h3v3h-3zm0 7h3v3h-3zm0 7h3v3h-3z" style="fill:none;stroke:#6f6f6f;stroke-width:.4611;stroke-miterlimit:10"/><path d="M694.68 473.45h16v3h-16zm0 14h16v3h-16zm0-7h16v3h-16zm24-7h16v3h-16zm0 14h16v3h-16zm0-7h16v3h-16zm23-7h16v3h-16zm0 14h16v3h-16zm0-7h16v3h-16zm23-7h16v3h-16zm0 14h16v3h-16zm0-7h16v3h-16z" style="fill:none;stroke:#6f6f6f;stroke-miterlimit:10;stroke-width:.4612"/><path d="M691.68 502.45h3v11h-3zm3 0h3v11h-3zm7 0h3v11h-3zm3 0h3v11h-3zm7 0h3v11h-3zm3 0h3v11h-3zm7 0h3v11h-3zm3 0h3v11h-3zm14 0h3v11h-3zm3 0h3v11h-3zm7 0h3v11h-3zm3 0h3v11h-3zm7 0h3v11h-3zm3 0h3v11h-3zm7 0h3v11h-3zm3 0h3v11h-3zm7 0h3v11h-3zm3 0h3v11h-3z" style="fill:none;stroke:#6f6f6f;stroke-miterlimit:10;stroke-width:.4783"/><path d="M697.68 470.45h10v23h-10zm24 0h10v23h-10zm23 0h10v23h-10zm23 0h10v23h-10z" class="st246"/><path d="m594.7 454.39-.02.02c-.6-.59-1.43-.96-2.35-.96h-57.31a3.34 3.34 0 0 0-3.34 3.34v57.34c0 .93.38 1.76.98 2.37l.02-.02c.6.59 1.43.96 2.35.96h57.31c1.85 0 3.34-1.5 3.34-3.34v-57.34c0-.92-.38-1.76-.98-2.37z" class="st245"/><path d="M583.95 465.19s-.01 0 0 0q-.015 0 0 0a2.5 2.5 0 0 0-1.78-.74H545.2c-1.39 0-2.52 1.13-2.52 2.52v37.07c0 .67.27 1.27.71 1.7.44.44 1.04.71 1.7.71h9.76c.43 0 .85-.17 1.16-.47l1.12-1.07c.31-.3.73-.47 1.16-.47h9.06c.43 0 .85.17 1.16.47l1.12 1.07c.31.3.73.47 1.16.47h11.37c1.39 0 2.52-1.13 2.52-2.52v-36.97c0-.69-.28-1.31-.73-1.77z" class="st245"/><path d="M577.99 471.15q0-.015 0 0a5.76 5.76 0 0 0-4.09-1.7h-20.37c-3.23 0-5.85 2.62-5.85 5.85v20.37c0 1.6.65 3.04 1.69 4.09a5.75 5.75 0 0 0 4.09 1.69h20.37c3.23 0 5.85-2.62 5.85-5.85v-20.37c0-1.59-.65-3.04-1.69-4.08z" class="st245"/><path d="M575.87 473.27s-.01 0 0 0q-.015 0 0 0c-.51-.51-1.2-.82-1.97-.82h-20.38c-1.56 0-2.83 1.27-2.83 2.83v20.38c0 .77.31 1.46.81 1.97.5.5 1.2.81 1.97.81h20.38c1.56 0 2.83-1.27 2.83-2.83v-20.38c0-.76-.31-1.46-.81-1.96zm-46.41-11.82a2.5 2.5 0 0 0-2.49 2.72c.11 1.32 1.34 2.28 2.67 2.28h8.04v-5zm0 11a2.5 2.5 0 0 0-2.49 2.72c.11 1.32 1.34 2.28 2.67 2.28h8.04v-5zm0 10a2.5 2.5 0 0 0-2.49 2.72c.11 1.32 1.34 2.28 2.67 2.28h8.04v-5zm0 11a2.5 2.5 0 0 0-2.49 2.72c.11 1.32 1.34 2.28 2.67 2.28h8.04v-5zm0 11a2.5 2.5 0 0 0-2.49 2.72c.11 1.32 1.34 2.28 2.67 2.28h8.04v-5zm12.72 7h-2.5v8.93c0 1.12.65 2.19 1.71 2.54 1.72.57 3.29-.8 3.29-2.57v-8.89h-2.5zm11 0h-2.5v8.93c0 1.12.65 2.19 1.71 2.54 1.72.57 3.29-.8 3.29-2.57v-8.89h-2.5zm10 0h-2.5v8.93c0 1.12.65 2.19 1.71 2.54 1.72.57 3.29-.8 3.29-2.57v-8.89h-2.5zm11 0h-2.5v8.93c0 1.12.65 2.19 1.71 2.54 1.72.57 3.29-.8 3.29-2.57v-8.89h-2.5zm11 0h-2.5v8.93c0 1.12.65 2.19 1.71 2.54 1.72.57 3.29-.8 3.29-2.57v-8.89h-2.5zm-45.5-60.92v8.93h5v-8.89c0-1.77-1.57-3.14-3.29-2.57-1.06.33-1.71 1.41-1.71 2.53zm13.5-2.68c-1.38 0-2.5 1.21-2.5 2.7v8.89h5v-8.89c0-1.49-1.12-2.7-2.5-2.7zm10 0c-1.38 0-2.5 1.21-2.5 2.7v8.89h5v-8.89c0-1.49-1.12-2.7-2.5-2.7zm11 0c-1.38 0-2.5 1.21-2.5 2.7v8.89h5v-8.89c0-1.49-1.12-2.7-2.5-2.7zm11 0c-1.38 0-2.5 1.21-2.5 2.7v8.89h5v-8.89c0-1.49-1.12-2.7-2.5-2.7zm12.72 13.6h-8.22v5h8.22a2.5 2.5 0 0 0 0-5zm0 11h-8.22v5h8.22a2.5 2.5 0 0 0 0-5zm0 10h-8.22v5h8.22a2.5 2.5 0 0 0 0-5zm0 11h-8.22v5h8.22a2.5 2.5 0 0 0 0-5zm0 10h-8.22v5h8.22a2.5 2.5 0 0 0 0-5zm283.78-48v53h5v-8h13v8h53v-53z" class="st245"/><path d="M943.69 492.45h-23.02c-.55 0-.99-.44-.99-.99v-26.02c0-.55.44-.99.99-.99h23.02c.55 0 .99.44.99.99v26.02c0 .55-.44.99-.99.99z" style="fill:none;stroke:#6f6f6f;stroke-width:.4741;stroke-miterlimit:10"/><path d="M911.68 477.45h-18.01c-.55 0-1-.45-1-1v-11.01c0-.55.45-1 1-1h18.01c.55 0 1 .45 1 1v11.01c0 .55-.45 1-1 1z" style="fill:none;stroke:#6f6f6f;stroke-width:.4764;stroke-miterlimit:10"/><path d="M911.68 495.45h-18c-.55 0-1-.45-1-1v-11c0-.55.45-1 1-1h18c.55 0 1 .45 1 1v11c0 .55-.45 1-1 1z" style="fill:none;stroke:#6f6f6f;stroke-width:.4785;stroke-miterlimit:10"/><path d="M917.68 468.45h5v2h-5zm0 5h5v2h-5zm0 5h5v2h-5zm0 5h5v2h-5zm0 5h5v2h-5zm25-20h5v2h-5zm0 5h5v2h-5zm0 5h5v2h-5zm0 5h5v2h-5zm0 5h5v2h-5z" style="fill:none;stroke:#6f6f6f;stroke-miterlimit:10;stroke-width:.4207"/><path d="M920.68 509.45h2v6h-2zm2 0h2v6h-2z" style="fill:none;stroke:#6f6f6f;stroke-miterlimit:10;stroke-width:.4243"/><path d="M940.682 518.45v2h-8v-2zm0 2v2h-8v-2zm-28-2v2h-8v-2zm0 2v2h-8v-2z" style="fill:none;stroke:#6f6f6f;stroke-miterlimit:10;stroke-width:.4302"/><path d="M875.18 444.45h-3.5v6h4.02c.72-.26.98 1.04.98 1.04v68.96h5v-69.5a6.5 6.5 0 0 0-6.5-6.5z" class="st245"/><path d="M931 525.45h-16.65c-.93 0-1.68-.75-1.68-1.68v-6.65c0-.93.75-1.68 1.68-1.68H931c.93 0 1.68.75 1.68 1.68v6.65c0 .93-.75 1.68-1.68 1.68z" style="fill:none;stroke:#6f6f6f;stroke-width:.4799;stroke-miterlimit:10"/><path d="M904.68 500.45h5v5h-5zm0 5h5v5h-5zm8-5h5v5h-5zm0 5h5v5h-5zm7-5h5v5h-5zm0 5h5v5h-5zm8-5h5v5h-5zm0 5h5v5h-5zm8-5h5v5h-5zm0 5h5v5h-5zm7-5h5v5h-5zm0 5h5v5h-5z" style="fill:none;stroke:#6f6f6f;stroke-miterlimit:10;stroke-width:.479"/><path d="M417.68 449.57c0-1.17-.95-2.12-2.12-2.12H362.8c-1.17 0-2.12.95-2.12 2.12v71.76c0 1.17.95 2.12 2.12 2.12h52.76c1.17 0 2.12-.95 2.12-2.12z" class="st245"/><path d="M389.68 523.45v-11.52c2.51-.07 4.94-.46 7.25-1.14l5.89 4.17c.12.09.24.18.37.27l.04.03c1.65 1.06 3.7 1.57 5.89 1.26 3.56-.5 6.52-3.27 7.09-6.81.57-3.56-1.19-6.77-4.03-8.42.18-.24 3.63-4.76 3.94-5.84h1.57" style="fill:none;stroke:#6f6f6f;stroke-width:.474;stroke-miterlimit:10"/><path d="M389.55 508.72c-14.27 0-25.87-11.61-25.87-25.87 0-14.27 11.61-25.87 25.87-25.87s25.87 11.61 25.87 25.87-11.6 25.87-25.87 25.87" class="stDark"/><path d="M389.55 457.21c14.14 0 25.64 11.5 25.64 25.64s-11.5 25.64-25.64 25.64-25.64-11.5-25.64-25.64 11.5-25.64 25.64-25.64m0-.47c-14.42 0-26.11 11.69-26.11 26.11s11.69 26.11 26.11 26.11 26.11-11.69 26.11-26.11-11.69-26.11-26.11-26.11" class="st148"/><circle cx="365.18" cy="450.95" r="1.29" class="stDark"/><path d="M365.18 449.87c.6 0 1.09.49 1.09 1.09s-.49 1.09-1.09 1.09-1.09-.49-1.09-1.09.49-1.09 1.09-1.09m0-.42c-.83 0-1.5.67-1.5 1.5s.67 1.5 1.5 1.5 1.5-.67 1.5-1.5-.67-1.5-1.5-1.5" class="st148"/><circle cx="414.18" cy="450.95" r="1.29" class="stDark"/><path d="M414.18 449.87c.6 0 1.09.49 1.09 1.09s-.49 1.09-1.09 1.09-1.09-.49-1.09-1.09.49-1.09 1.09-1.09m0-.42c-.83 0-1.5.67-1.5 1.5s.67 1.5 1.5 1.5 1.5-.67 1.5-1.5-.67-1.5-1.5-1.5" class="st148"/><circle cx="365.18" cy="518.95" r="1.29" class="stDark"/><path d="M365.18 517.87c.6 0 1.09.49 1.09 1.09s-.49 1.09-1.09 1.09-1.09-.49-1.09-1.09.49-1.09 1.09-1.09m0-.42c-.83 0-1.5.67-1.5 1.5s.67 1.5 1.5 1.5 1.5-.67 1.5-1.5-.67-1.5-1.5-1.5" class="st148"/><circle cx="414.18" cy="518.95" r="1.29" class="stDark"/><path d="M414.18 517.87c.6 0 1.09.49 1.09 1.09s-.49 1.09-1.09 1.09-1.09-.49-1.09-1.09.49-1.09 1.09-1.09m0-.42c-.83 0-1.5.67-1.5 1.5s.67 1.5 1.5 1.5 1.5-.67 1.5-1.5-.67-1.5-1.5-1.5" class="st148"/><circle cx="389.45" cy="482.85" r="6.84" class="stDark"/><path d="M389.45 476.25c3.64 0 6.6 2.96 6.6 6.6s-2.96 6.6-6.6 6.6-6.6-2.96-6.6-6.6 2.97-6.6 6.6-6.6m0-.48a7.07 7.07 0 1 0 0 14.14 7.07 7.07 0 0 0 0-14.14" class="st148"/><path d="M407.35 513.65c-1.13 0-2.22-.33-3.16-.95l-23.02-16.75-.07-.05c-.26-.2-.41-.5-.41-.82 0-.57.46-1.04 1.04-1.04.08 0 .16.01.26.04l27.61 8.48c2.13.9 3.52 2.99 3.52 5.32.01 3.18-2.58 5.77-5.77 5.77" class="stDark"/><path d="M381.73 494.28q.09 0 .18.03l27.58 8.46a5.54 5.54 0 0 1-2.14 10.65c-1.08 0-2.13-.31-3.03-.91l-.04-.02-22.88-16.66-.15-.11a.79.79 0 0 1-.32-.63c0-.45.36-.81.8-.81m0-.47c-.7 0-1.27.57-1.27 1.27 0 .41.2.77.5 1.01l23.1 16.81c.95.62 2.08.99 3.29.99a6.009 6.009 0 0 0 2.32-11.55l-27.62-8.48c-.1-.03-.2-.05-.32-.05" class="st148"/><circle cx="407.68" cy="507.45" r="3.75" class="stDark"/><path d="M407.68 503.94c1.93 0 3.51 1.57 3.51 3.51s-1.57 3.51-3.51 3.51-3.51-1.57-3.51-3.51 1.58-3.51 3.51-3.51m0-.49c-2.21 0-4 1.79-4 4s1.79 4 4 4 4-1.79 4-4-1.79-4-4-4" class="st148"/><path fill="#fff" d="M352.44 152.765v-6.03a3.735 3.735 0 0 0-3.735-3.735c-2.07 0-3.75 1.68-3.75 3.735l.015.015c0 .42.33.75.75.75s.75-.33.75-.75l-.015-.015a2.244 2.244 0 0 1 4.485 0v7.395l-1.77 2.145a14.2 14.2 0 0 0-3.096 5.786l-.969-.371a2.55 2.55 0 0 1-1.635-2.37v-6.915h-.022.007v-5.925c0-1.68-1.185-3.135-2.76-3.465a.585.585 0 0 0-.72.57v5.454a5 5 0 0 0-.27-.009h-.54a.925.925 0 0 1-.93-.93v-4.29a.815.815 0 0 0-.945-.795c-2.43.45-4.29 2.655-4.29 5.22v4.83a6.435 6.435 0 0 0 5.972 6.419 7.08 7.08 0 0 0 4.513 6.406l2.156.824a14 14 0 0 0 .385 2.413l-1.341-.357a1.2 1.2 0 0 1-.825-.765l-.45-1.32a.754.754 0 1 0-1.425.495l.45 1.32c.285.84.99 1.485 1.845 1.725l2.25.6.165.525h-3.405a2.56 2.56 0 0 1-2.115-1.095l-.84-1.305a.75.75 0 0 0-1.035-.225.75.75 0 0 0-.225 1.035l.855 1.335a4.09 4.09 0 0 0 3.36 1.755h3.873l.182.582-3.32.888a2.54 2.54 0 0 1-2.325-.51l-.9-.81a.75.75 0 0 0-1.05.045c-.27.3-.255.78.045 1.05l.93.84c.735.63 1.665.96 2.625.96.36 0 .705-.045 1.065-.135l3.375-.903.274.876-.874.927c-.42.435-1.005.69-1.62.69h-1.365c-.42 0-.75.33-.75.75s.345.765.75.765h1.38c1.02 0 2.01-.42 2.7-1.17l.294-.312.525 1.683-1.974 1.974c-.9.9-.9 2.37 0 3.27l.015.015c.9.9 2.37.9 3.27 0l.601-.601a4.06 4.06 0 0 0 2.609 1.246 4.1 4.1 0 0 0 3.276-1.239l.594.594c.9.9 2.37.9 3.27 0l.015-.015c.9-.9.9-2.37 0-3.27l-1.97-1.97.495-1.58.32.34c.69.75 1.68 1.17 2.7 1.17h1.38c.405 0 .765-.345.765-.765s-.33-.75-.75-.75h-1.38c-.615 0-1.2-.255-1.62-.69l-.9-.954.045-.141-.014.013.225-.72 3.419.915a4.1 4.1 0 0 0 3.69-.825l.93-.84c.3-.27.315-.75.045-1.05s-.75-.315-1.05-.045l-.9.81c-.63.54-1.5.735-2.325.51l-3.365-.9.182-.583h3.918c1.35 0 2.595-.645 3.36-1.755l.855-1.335a.75.75 0 0 0-.225-1.035.75.75 0 0 0-1.035.225l-.84 1.305a2.56 2.56 0 0 1-2.115 1.095h-3.45l.159-.513 2.301-.612a2.73 2.73 0 0 0 1.845-1.725l.45-1.32a.754.754 0 1 0-1.425-.495l-.45 1.32c-.135.375-.435.66-.825.765l-1.38.367a14 14 0 0 0 .429-2.544l2.196-.838a7.08 7.08 0 0 0 4.513-6.407 6.435 6.435 0 0 0 5.972-6.418v-4.83c0-2.565-1.86-4.77-4.29-5.22a.815.815 0 0 0-.945.795v4.29c0 .51-.405.93-.93.93h-.54q-.135 0-.27.009V143.6a.6.6 0 0 0-.18-.42.56.56 0 0 0-.54-.165c-1.575.33-2.76 1.785-2.76 3.465v5.925h-.015v6.915c0 1.05-.66 1.995-1.635 2.37l-1.004.383a14.1 14.1 0 0 0-2.911-5.573l-1.98-2.391v-7.374c0-1.23 1.005-2.235 2.235-2.235s2.235 1.005 2.235 2.235l.015.015c0 .42.33.75.75.75s.75-.33.75-.75l-.015-.015c0-2.055-1.68-3.735-3.735-3.735s-3.735 1.68-3.735 3.735v6.024a3.36 3.36 0 0 0-3.015.008m0 5.817a1.125 1.125 0 1 1-2.13.724 1.125 1.125 0 0 1 2.13-.724m3.015.046a1.125 1.125 0 1 1 2.16.633 1.125 1.125 0 0 1-2.16-.633"/></svg>
