<svg xmlns="http://www.w3.org/2000/svg" xml:space="preserve" id="Layer_1" x="0" y="0" viewBox="0 0 1024 440"><style>.st142{fill:#f47b67}.st222{font-family:&quot;Lato-Light&quot;}.st223{font-size:8.3545px}.st225{font-family:&quot;Lato-Regular&quot;}.st228{fill:none;stroke-width:.8606;stroke-miterlimit:10}.st229{font-size:16.8114px}.st230{font-size:19.4027px}text{fill:#d8d3c7}.st0{fill:#f0ede8}.st216{fill:#6b6b6b}.st228{stroke:#5a5a55}</style><path d="M603.77 329.21h-53.55c-1.78 0-3.22-1.44-3.22-3.22v-64.55c0-1.78 1.44-3.22 3.22-3.22h53.55c1.78 0 3.22 1.44 3.22 3.22v64.55c.01 1.78-1.44 3.22-3.22 3.22m74 0h-53.55c-1.78 0-3.22-1.44-3.22-3.22v-64.55c0-1.78 1.44-3.22 3.22-3.22h53.55c1.78 0 3.22 1.44 3.22 3.22v64.55c.01 1.78-1.44 3.22-3.22 3.22m74 0h-53.55c-1.78 0-3.22-1.44-3.22-3.22v-64.55c0-1.78 1.44-3.22 3.22-3.22h53.55c1.78 0 3.22 1.44 3.22 3.22v64.55c.01 1.78-1.44 3.22-3.22 3.22m142 0h-53.55c-1.78 0-3.22-1.44-3.22-3.22v-64.55c0-1.78 1.44-3.22 3.22-3.22h53.55c1.78 0 3.22 1.44 3.22 3.22v64.55c.01 1.78-1.44 3.22-3.22 3.22" class="st142"/><circle cx="772" cy="321.21" r="3" class="st142"/><circle cx="784" cy="321.21" r="3" class="st142"/><circle cx="796" cy="321.21" r="3" class="st142"/><circle cx="808" cy="321.21" r="3" class="st142"/><circle cx="820" cy="321.21" r="3" class="st142"/><text class="st222 st223" transform="translate(554.501 343.704)">CHECKSUM</text><text class="st222 st223" transform="translate(628.368 343.704)">CHECKSUM</text><text class="st222 st223" transform="translate(702.233 343.704)">CHECKSUM</text><text class="st222 st223" transform="translate(844.186 343.704)">CHECKSUM</text><path fill="#13131a" d="M131 87.21h766v67H131z"/><path d="M131 87.21h766v67H131z" style="fill:none;stroke:#3a3a40;stroke-width:.413;stroke-miterlimit:10"/><text transform="translate(356.722 116.544)"><tspan x="0" y="0" class="st225" style="font-size:15.4912px">OBJECT ERASURE-CODED OVER 16 DRIVES</tspan><tspan x="53.21" y="17.21" class="st222" style="font-size:14.3437px">Tolerates up to any 8 disk failures</tspan></text><path d="M131.22 228.58c0-15.39 12.48-27.87 27.87-27.87h294.34c15.39 0 27.87 12.48 27.87 27.87" class="st228"/><path d="M187.77 331.21h-53.55c-1.78 0-3.22-1.44-3.22-3.22v-64.55c0-1.78 1.44-3.22 3.22-3.22h53.55c1.78 0 3.22 1.44 3.22 3.22v64.55c.01 1.78-1.44 3.22-3.22 3.22m74 0h-53.55c-1.78 0-3.22-1.44-3.22-3.22v-64.55c0-1.78 1.44-3.22 3.22-3.22h53.55c1.78 0 3.22 1.44 3.22 3.22v64.55c.01 1.78-1.44 3.22-3.22 3.22m74 0h-53.55c-1.78 0-3.22-1.44-3.22-3.22v-64.55c0-1.78 1.44-3.22 3.22-3.22h53.55c1.78 0 3.22 1.44 3.22 3.22v64.55c.01 1.78-1.44 3.22-3.22 3.22m142 0h-53.55c-1.78 0-3.22-1.44-3.22-3.22v-64.55c0-1.78 1.44-3.22 3.22-3.22h53.55c1.78 0 3.22 1.44 3.22 3.22v64.55c.01 1.78-1.44 3.22-3.22 3.22" class="st216"/><text class="st222 st229" transform="translate(254.462 235.803)">DATA BLOCK</text><circle cx="356" cy="323.21" r="3" class="st216"/><circle cx="368" cy="323.21" r="3" class="st216"/><circle cx="380" cy="323.21" r="3" class="st216"/><circle cx="392" cy="323.21" r="3" class="st216"/><circle cx="405" cy="323.21" r="3" class="st216"/><text class="st0 st225 st230" transform="translate(155.787 301.17)">1</text><text class="st0 st225 st230" transform="translate(229.653 301.17)">2</text><text class="st0 st225 st230" transform="translate(303.518 301.17)">3</text><text class="st0 st225 st230" transform="translate(445.472 301.17)">8</text><text class="st222 st223" transform="translate(138.542 345.135)">CHECKSUM</text><text class="st222 st223" transform="translate(212.405 345.135)">CHECKSUM</text><text class="st222 st223" transform="translate(286.271 345.135)">CHECKSUM</text><text class="st222 st223" transform="translate(428.225 345.135)">CHECKSUM</text><path d="M547.18 228.58c0-15.39 12.48-27.87 27.86-27.87h294.34c15.39 0 27.87 12.48 27.87 27.87" class="st228"/><text class="st222 st229" transform="translate(665.169 235.803)">PARITY BLOCK</text><text class="st0 st225 st230" transform="translate(566.408 301.17)">1P</text><text class="st0 st225 st230" transform="translate(640.273 301.17)">2P</text><text class="st0 st225 st230" transform="translate(714.14 301.17)">3P</text><text class="st0 st225 st230" transform="translate(856.093 301.17)">8P</text></svg>
